<svg xmlns="http://www.w3.org/2000/svg" version="1.1" xmlns:xlink="http://www.w3.org/1999/xlink" xmlns:svgjs="http://svgjs.dev/svgjs" width="1280" height="720" preserveAspectRatio="none" viewBox="0 0 1280 720"><g mask="url(&quot;#SvgjsMask1085&quot;)" fill="none"><rect width="1280" height="720" x="0" y="0" fill="rgba(110, 212, 114, 0.39)"></rect><path d="M1035.52 485.9 a142.5 142.5 0 1 0 285 0 a142.5 142.5 0 1 0 -285 0z" fill="rgba(76, 175, 80, 0.41)" class="triangle-float3"></path><path d="M905.65 690.46 a133.73 133.73 0 1 0 267.46 0 a133.73 133.73 0 1 0 -267.46 0z" fill="rgba(76, 175, 80, 0.41)" class="triangle-float1"></path><path d="M98.09 81.25 a228.17 228.17 0 1 0 456.34 0 a228.17 228.17 0 1 0 -456.34 0z" fill="rgba(76, 175, 80, 0.41)" class="triangle-float1"></path><path d="M1026.7 35.4 a158.56 158.56 0 1 0 317.12 0 a158.56 158.56 0 1 0 -317.12 0z" fill="rgba(76, 175, 80, 0.41)" class="triangle-float1"></path><path d="M461.28 226.99 a183.93 183.93 0 1 0 367.86 0 a183.93 183.93 0 1 0 -367.86 0z" fill="rgba(76, 175, 80, 0.41)" class="triangle-float1"></path><path d="M9.94 527.25 a131.02 131.02 0 1 0 262.04 0 a131.02 131.02 0 1 0 -262.04 0z" fill="rgba(76, 175, 80, 0.41)" class="triangle-float1"></path></g><defs><mask id="SvgjsMask1085"><rect width="1280" height="720" fill="#ffffff"></rect></mask></defs></svg>