<svg xmlns="http://www.w3.org/2000/svg" version="1.1" xmlns:xlink="http://www.w3.org/1999/xlink" xmlns:svgjs="http://svgjs.dev/svgjs" width="1280" height="720" preserveAspectRatio="none" viewBox="0 0 1280 720"><g mask="url(&quot;#SvgjsMask1129&quot;)" fill="none"><rect width="1280" height="720" x="0" y="0" fill="rgba(110, 212, 114, 0.39)"></rect><path d="M1047.64 492.09 a134.12 134.12 0 1 0 268.24 0 a134.12 134.12 0 1 0 -268.24 0z" fill="rgba(76, 175, 80, 0.41)" class="triangle-float2"></path><path d="M745.98 349.28 a201.48 201.48 0 1 0 402.96 0 a201.48 201.48 0 1 0 -402.96 0z" fill="rgba(76, 175, 80, 0.41)" class="triangle-float2"></path><path d="M891.49 203.27 a163.77 163.77 0 1 0 327.54 0 a163.77 163.77 0 1 0 -327.54 0z" fill="rgba(76, 175, 80, 0.41)" class="triangle-float3"></path><path d="M111.34 585.57 a238.57 238.57 0 1 0 477.14 0 a238.57 238.57 0 1 0 -477.14 0z" fill="rgba(76, 175, 80, 0.41)" class="triangle-float3"></path><path d="M-168.06 352.9 a192.24 192.24 0 1 0 384.48 0 a192.24 192.24 0 1 0 -384.48 0z" fill="rgba(76, 175, 80, 0.41)" class="triangle-float1"></path></g><defs><mask id="SvgjsMask1129"><rect width="1280" height="720" fill="#ffffff"></rect></mask></defs></svg>