<svg xmlns="http://www.w3.org/2000/svg" version="1.1" xmlns:xlink="http://www.w3.org/1999/xlink" xmlns:svgjs="http://svgjs.dev/svgjs" width="1280" height="720" preserveAspectRatio="none" viewBox="0 0 1280 720"><g mask="url(&quot;#SvgjsMask1165&quot;)" fill="none"><path d="M468.32 191.05 a120.04 120.04 0 1 0 240.08 0 a120.04 120.04 0 1 0 -240.08 0z" fill="rgba(0, 121, 255, 0.24)" class="triangle-float3"></path><path d="M-32.46 448.3 a239.88 239.88 0 1 0 479.76 0 a239.88 239.88 0 1 0 -479.76 0z" fill="rgba(0, 121, 255, 0.24)" class="triangle-float2"></path><path d="M831.45 633.3 a163.67 163.67 0 1 0 327.34 0 a163.67 163.67 0 1 0 -327.34 0z" fill="rgba(0, 121, 255, 0.24)" class="triangle-float2"></path><path d="M824.73 169.84 a216 216 0 1 0 432 0 a216 216 0 1 0 -432 0z" fill="rgba(0, 121, 255, 0.24)" class="triangle-float3"></path></g><defs><mask id="SvgjsMask1165"><rect width="1280" height="720" fill="#ffffff"></rect></mask></defs></svg>