<svg xmlns="http://www.w3.org/2000/svg" version="1.1" xmlns:xlink="http://www.w3.org/1999/xlink" xmlns:svgjs="http://svgjs.dev/svgjs" width="1280" height="720" preserveAspectRatio="none" viewBox="0 0 1280 720"><g mask="url(&quot;#SvgjsMask1153&quot;)" fill="none"><path d="M71.08 205.47 a133.58 133.58 0 1 0 267.16 0 a133.58 133.58 0 1 0 -267.16 0z" fill="rgba(0, 121, 255, 0.24)" class="triangle-float2"></path><path d="M546.34 381.6 a123.73 123.73 0 1 0 247.46 0 a123.73 123.73 0 1 0 -247.46 0z" fill="rgba(0, 121, 255, 0.24)" class="triangle-float2"></path><path d="M448.44 526.14 a125.14 125.14 0 1 0 250.28 0 a125.14 125.14 0 1 0 -250.28 0z" fill="rgba(0, 121, 255, 0.24)" class="triangle-float3"></path><path d="M952.77 41.75 a189.04 189.04 0 1 0 378.08 0 a189.04 189.04 0 1 0 -378.08 0z" fill="rgba(0, 121, 255, 0.24)" class="triangle-float2"></path></g><defs><mask id="SvgjsMask1153"><rect width="1280" height="720" fill="#ffffff"></rect></mask></defs></svg>