<svg xmlns="http://www.w3.org/2000/svg" version="1.1" xmlns:xlink="http://www.w3.org/1999/xlink" xmlns:svgjs="http://svgjs.dev/svgjs" width="12800" height="7200" preserveAspectRatio="none" viewBox="0 0 12800 7200"><g mask="url(&quot;#SvgjsMask1206&quot;)" fill="none"><path d="M8632.57 46.21 a2013.75 2013.75 0 1 0 4027.5 0 a2013.75 2013.75 0 1 0 -4027.5 0z" fill="rgba(0, 121, 255, 0.24)" class="triangle-float2"></path><path d="M8905.35 4603.98 a1707.08 1707.08 0 1 0 3414.16 0 a1707.08 1707.08 0 1 0 -3414.16 0z" fill="rgba(0, 121, 255, 0.24)" class="triangle-float2"></path><path d="M3852.56 2707.63 a1883.04 1883.04 0 1 0 3766.08 0 a1883.04 1883.04 0 1 0 -3766.08 0z" fill="rgba(0, 121, 255, 0.24)" class="triangle-float1"></path><path d="M-717.3 1380.61 a1339.23 1339.23 0 1 0 2678.46 0 a1339.23 1339.23 0 1 0 -2678.46 0z" fill="rgba(0, 121, 255, 0.24)" class="triangle-float3"></path></g><defs><mask id="SvgjsMask1206"><rect width="12800" height="7200" fill="#ffffff"></rect></mask></defs></svg>